<?xml version="1.0" standalone="no"?>
<!DOCTYPE svg PUBLIC "-//W3C//DTD SVG 20010904//EN"
 "http://www.w3.org/TR/2001/REC-SVG-20010904/DTD/svg10.dtd">
<svg version="1.0" xmlns="http://www.w3.org/2000/svg"
 width="512.000000pt" height="512.000000pt" viewBox="0 0 512.000000 512.000000"
 preserveAspectRatio="xMidYMid meet">

<g transform="translate(0.000000,512.000000) scale(0.100000,-0.100000)"
fill="#000000" stroke="none">
<path d="M0 4042 l1 -1078 36 -28 c34 -27 35 -30 18 -43 -11 -7 -27 -13 -37
-13 -17 0 -18 -14 -18 -199 l0 -198 63 -79 c121 -152 157 -199 200 -258 42
-60 197 -221 319 -331 84 -76 227 -232 281 -307 23 -32 47 -58 52 -58 6 0 17
-16 24 -35 7 -19 18 -40 24 -47 14 -15 49 -86 53 -108 2 -8 8 -16 13 -18 6 -2
11 -12 11 -21 0 -10 11 -35 25 -55 14 -20 25 -43 25 -51 0 -8 6 -18 13 -22 8
-4 33 -49 57 -100 25 -50 49 -89 54 -86 5 3 6 2 3 -4 -4 -6 -2 -23 3 -39 15
-49 175 -397 209 -454 5 -8 14 -33 20 -55 6 -22 22 -53 35 -70 l24 -30 -5 30
c-4 30 -4 29 41 -18 25 -27 46 -53 46 -58 0 -15 -27 -10 -41 7 -12 15 -143
106 -166 115 -4 2 -62 36 -128 75 -66 39 -178 102 -248 140 -70 38 -136 78
-147 89 -10 11 -68 118 -129 238 -119 234 -148 281 -282 457 -99 130 -383 460
-423 491 l-26 20 0 -809 0 -809 47 -33 47 -34 -39 -17 c-22 -10 -43 -15 -47
-13 -4 3 -8 -24 -8 -60 l0 -66 1644 0 c905 0 1646 4 1648 8 11 24 68 58 154
91 54 21 171 68 259 103 238 97 315 122 327 110 18 -18 32 -173 21 -245 l-9
-67 66 0 c62 0 68 2 78 25 21 47 13 115 -14 115 -8 0 -14 5 -14 10 0 6 7 10
16 10 8 0 12 5 9 10 -4 6 -11 8 -16 5 -5 -4 -9 25 -9 69 0 44 4 76 10 76 6 0
10 13 10 29 0 49 48 78 89 52 17 -11 47 -1 335 107 189 71 242 95 252 113 7
13 13 18 14 12 0 -7 12 -13 28 -13 27 0 185 48 210 63 9 7 12 462 12 2223 l0
2214 -2560 0 -2560 0 0 -1078z m2580 830 c125 -234 318 -486 498 -653 42 -38
69 -69 61 -69 -8 0 -45 9 -84 19 -38 10 -108 22 -153 26 -73 6 -99 14 -205 65
-67 32 -130 67 -140 78 -37 41 -132 286 -202 520 -33 112 -33 114 -12 107 51
-15 103 -16 137 -2 19 9 38 13 42 11 3 -2 30 -48 58 -102z m440 -1019 c0 -7 4
-13 9 -13 16 0 61 -91 81 -161 l18 -67 -40 -18 -41 -18 -33 38 c-61 71 -95
218 -64 277 11 19 11 19 40 -3 17 -12 30 -28 30 -35z m-2270 17 c0 -5 -5 -10
-11 -10 -5 0 -7 5 -4 10 3 6 8 10 11 10 2 0 4 -4 4 -10z m54 -7 c4 -5 12 -9
17 -9 5 -1 14 -2 19 -3 6 0 10 -11 11 -23 0 -13 3 -17 6 -10 2 6 10 12 16 12
5 0 8 -3 4 -6 -3 -3 7 -17 23 -30 16 -14 27 -32 25 -42 -2 -9 -4 -34 -4 -55
-1 -34 -3 -37 -20 -28 -10 6 -21 8 -24 5 -9 -9 -92 102 -106 142 -11 30 -11
38 0 45 17 11 24 11 33 2z m2109 -229 c21 -41 73 -84 100 -84 12 0 17 -4 12
-8 -15 -10 -32 -52 -50 -123 -21 -79 -8 -144 42 -217 l37 -54 -16 -41 c-9 -23
-19 -50 -23 -59 -4 -11 -3 -18 4 -18 20 0 54 88 46 118 -10 39 -17 75 -18 90
0 6 -5 12 -11 12 -6 0 -6 4 1 11 6 6 9 17 7 24 -3 7 8 17 27 24 18 6 41 19 51
28 17 15 20 15 35 1 28 -29 30 -186 4 -288 -35 -134 -131 -418 -147 -434 -21
-21 -120 -39 -179 -32 -67 8 -222 71 -360 147 -156 86 -148 76 -140 184 10
136 8 132 68 138 60 5 99 16 182 50 74 31 122 75 131 122 3 19 10 35 15 35 5
0 7 11 3 24 -4 18 0 28 20 42 15 11 36 27 48 37 11 9 27 17 33 17 7 0 15 9 18
21 3 12 10 19 14 16 5 -3 15 8 22 25 11 24 11 40 1 89 -14 65 -19 71 -73 89
-38 12 -42 30 -5 30 20 0 21 4 15 78 -3 43 -9 86 -13 97 -5 13 -4 16 4 11 7
-4 12 -1 13 6 0 7 15 -30 33 -82 18 -52 40 -109 49 -126z m-216 184 c-3 -8 -6
-5 -6 6 -1 11 2 17 5 13 3 -3 4 -12 1 -19z m927 -135 l67 -58 -5 -125 c-3 -69
-10 -154 -16 -190 -20 -120 -12 -110 -85 -110 -58 0 -65 -2 -65 -20 0 -15 -7
-20 -25 -20 -14 0 -25 -5 -25 -11 0 -5 -4 -7 -10 -4 -16 10 -12 55 5 55 8 0
15 9 15 20 0 11 -7 20 -16 20 -11 0 -14 6 -9 21 5 14 2 25 -6 30 -11 7 -10 17
9 51 62 113 73 139 85 199 8 39 11 91 8 132 -4 37 -4 67 0 67 3 0 36 -26 73
-57z m-2714 -45 c0 -6 -7 -5 -15 2 -8 7 -15 17 -15 22 0 6 7 5 15 -2 8 -7 15
-17 15 -22z m2179 -228 c28 -14 34 -40 15 -61 -27 -30 -54 -24 -54 10 0 30 9
61 17 61 2 0 12 -4 22 -10z m-385 -10 c20 -7 26 -17 26 -39 0 -15 -7 -34 -15
-41 -21 -17 -99 -25 -121 -11 -17 9 -17 10 -2 11 21 0 58 46 58 71 0 21 16 24
54 9z m-151 -45 c19 -39 18 -40 -18 -23 -24 11 -33 37 -18 51 12 13 19 7 36
-28z m1042 -225 c-3 -5 -22 -10 -41 -10 -19 0 -34 5 -34 10 0 6 18 10 41 10
24 0 38 -4 34 -10z m-1528 -47 c-3 -10 -5 -4 -5 12 0 17 2 24 5 18 2 -7 2 -21
0 -30z m-598 -1826 c0 -9 -2 -8 -6 1 -2 6 -10 9 -15 6 -7 -4 -8 -2 -4 5 9 13
26 5 25 -12z"/>
<path d="M2968 3073 c-22 -26 -30 -43 -21 -43 10 0 63 45 63 54 0 13 -27 5
-42 -11z"/>
<path d="M2944 2931 c-79 -38 -160 -62 -198 -58 -39 4 -25 -21 18 -32 39 -10
55 -8 141 19 54 17 101 30 106 30 4 0 3 -14 -3 -31 -12 -35 -57 -59 -110 -59
-31 -1 -32 -1 -14 -15 22 -17 62 -20 71 -5 3 5 22 17 41 26 19 9 33 22 31 28
-2 6 7 27 20 46 23 35 31 80 14 80 -5 0 -15 2 -23 5 -7 3 -50 -12 -94 -34z"/>
<path d="M0 1913 c1 -4 33 -30 72 -58 39 -27 76 -55 82 -60 6 -6 32 -25 58
-42 34 -23 44 -27 36 -13 -7 10 -48 42 -92 71 -45 29 -98 66 -118 82 -21 16
-38 25 -38 20z"/>
<path d="M5031 590 c-112 -51 -121 -60 -121 -115 0 -29 5 -48 14 -51 16 -6
186 74 192 91 3 7 4 35 2 63 l-3 50 -84 -38z"/>
<path d="M4841 454 c0 -11 3 -14 6 -6 3 7 2 16 -1 19 -3 4 -6 -2 -5 -13z"/>
<path d="M4750 443 c-176 -77 -425 -221 -481 -277 -39 -40 -54 -87 -37 -119 9
-17 11 -17 31 -3 45 32 255 155 352 206 136 72 185 107 185 130 0 11 4 20 10
20 5 0 8 13 7 30 -2 34 -14 37 -67 13z"/>
</g>
</svg>
